<svg width="330" height="111" viewBox="0 0 330 111" fill="none" xmlns="http://www.w3.org/2000/svg">
<path d="M163.521 77.8774L169.83 92.27L186.389 54.2184C178.701 54.2184 171.801 58.7531 168.746 65.7522L165.789 72.6527L163.521 77.8774Z" fill="white"/>
<path d="M161.353 82.5107L160.959 83.2993L167.366 97.7904L167.76 96.9032L161.353 82.5107Z" fill="white"/>
<path d="M162.339 80.2433L161.747 81.8206L168.154 96.2131L168.844 94.6359L162.339 80.2433Z" fill="white"/>
<path d="M163.324 78.4689L162.634 79.849L169.041 94.3402L169.633 92.7629L163.324 78.4689Z" fill="white"/>
<path d="M152.876 59.7389C152.581 59.936 152.384 60.2318 152.186 60.4289L157.903 73.4414L158.495 72.1598L152.876 59.7389Z" fill="white"/>
<path d="M151.694 61.0205C151.496 61.2176 151.299 61.4148 151.201 61.6119L157.213 75.1173L157.607 74.1315L151.694 60.9219V61.0205Z" fill="white"/>
<path d="M154.158 58.6545C153.862 58.9503 153.566 59.1474 153.271 59.4432L158.692 71.7656L159.382 70.1883L154.158 58.6545Z" fill="white"/>
<path d="M154.453 58.3588L159.48 69.7939L166.281 54.2184C161.846 54.2184 157.706 55.6971 154.355 58.3588H154.453Z" fill="white"/>
<path d="M164.212 100.551L148.737 65.6536C145.681 58.6545 138.683 54.2184 131.093 54.2184L151.595 100.551H164.212Z" fill="white"/>
<path d="M110.986 71.8641L103.297 54.2184L102.706 55.5986L110.394 73.047L110.986 71.8641Z" fill="white"/>
<path d="M105.565 82.8064L106.944 79.9476L99.7491 63.7806L85.9498 100.551H98.862L100.932 94.9316L113.548 94.833L108.226 82.8064H105.565Z" fill="white"/>
<path d="M109.606 74.6243L102.115 57.373L101.425 59.246L108.817 76.2016L109.606 74.6243Z" fill="white"/>
<path d="M108.324 77.286L100.932 60.6261L100.045 62.8934L107.339 79.2575L108.324 77.286Z" fill="white"/>
<path d="M108.916 82.8064L114.238 94.833H116.013L110.789 82.8064H108.916Z" fill="white"/>
<path d="M114.633 82.8064L119.857 94.7345H120.941L115.815 82.8064H114.633Z" fill="white"/>
<path d="M111.774 82.8064L117.097 94.833L118.575 94.7345L113.253 82.8064H111.774Z" fill="white"/>
<path d="M89.8925 23.4618L84.1756 10.3508L83.7814 11.4352L89.3996 24.349L89.8925 23.4618Z" fill="white"/>
<path d="M85.8513 31.5453L86.837 29.4751L81.5144 17.4485L71.3621 44.6563H80.923L82.4015 40.516L91.7653 40.4174L87.8226 31.5453H85.8513Z" fill="white"/>
<path d="M88.9068 25.4334L83.2885 12.7167L82.7957 14.0968L88.3154 26.6164L88.9068 25.4334Z" fill="white"/>
<path d="M87.8226 27.405L82.4015 15.0826L81.8101 16.7584L87.1326 28.8836L87.8226 27.405Z" fill="white"/>
<path d="M88.3154 31.5453L92.2581 40.4174H93.638L89.6954 31.5453H88.3154Z" fill="white"/>
<path d="M92.5537 31.5453L96.3978 40.3188H97.2849L93.4408 31.5453H92.5537Z" fill="white"/>
<path d="M90.4839 31.5453L94.328 40.4174L95.4122 40.3188L91.5681 31.5453H90.4839Z" fill="white"/>
<path d="M137.894 79.4547L135.529 84.8765L99.8477 12.7167C96.7922 5.71758 89.794 1.28152 82.2043 1.28152L129.812 100.551H141.344L144.301 93.7487L137.894 79.3561V79.4547Z" fill="white"/>
<path d="M211.03 83.2007L210.932 72.9485V71.5684H219.901V83.2007H211.03Z" fill="white"/>
<path d="M224.731 109.718C221.084 108.141 218.127 105.48 216.057 102.226C215.762 101.734 215.466 101.241 215.269 100.748C215.072 100.353 214.875 99.8605 214.677 99.3677C214.185 98.0861 213.79 96.8046 213.495 95.5231C213.298 94.4387 213.199 93.2558 213.199 92.0728V90.5941H224.731V99.3677V102.226V109.718Z" fill="white"/>
<path d="M213.396 88.9183V91.8756C213.396 92.5657 213.396 93.1572 213.495 93.8472C213.692 96.2131 214.382 98.4804 215.466 100.551H224.731V88.9183H213.396ZM213.199 54.1199V65.7522H224.534V54.1199H213.199ZM213.298 71.5684V83.2007H219.901V71.5684H213.298Z" fill="white"/>
<path d="M215.466 100.551H189.839V54.1199H213.298V65.7522H201.47V71.5684H213.396V83.2007H201.47V88.9183H213.396V91.8756C213.396 92.5657 213.396 93.1572 213.495 93.8472C213.692 96.2131 214.382 98.4804 215.466 100.551Z" fill="white"/>
<path d="M311.371 54.2184H274.31V65.7522H292.348L274.31 100.551H311.371V88.9183H293.432L311.371 54.2184Z" fill="white"/>
<path d="M68.6021 100.551H81.0215L73.3333 80.7362C77.276 78.1732 79.8387 73.7371 79.8387 68.7096C79.8387 60.7247 73.3333 54.2184 65.3495 54.2184H43.9606V100.551H55.4928V83.2007H61.8011L68.5036 100.551H68.6021ZM55.5914 65.7522H65.448C67.0251 65.7522 68.3065 67.0337 68.3065 68.611C68.3065 70.1882 67.0251 71.4698 65.448 71.4698H55.5914V65.6536V65.7522Z" fill="white"/>
<path d="M248.19 54.2184H229.66V100.551H248.19C261.004 100.551 271.353 90.1998 271.353 77.3845C271.353 64.5692 261.004 54.2184 248.19 54.2184ZM259.722 77.3845C259.722 83.7922 254.498 88.9183 248.19 88.9183H241.29V65.7522H248.19C254.597 65.7522 259.722 70.9769 259.722 77.2859V77.3845Z" fill="white"/>
<path d="M39.2294 54.2184H25.3315L13.7993 71.4698V54.2184H2.16846V100.551H13.7993V83.2993L25.3315 100.551H39.2294L23.7545 77.3845L39.2294 54.2184Z" fill="white"/>
<path d="M327.733 54.2184H316.201V100.551H327.733V54.2184Z" fill="white"/>
<path d="M153.468 27.5035C153.468 36.9671 160.762 44.5577 170.224 44.5577C179.686 44.5577 186.98 36.9671 186.98 27.5035C186.98 18.04 179.686 10.4494 170.224 10.4494C160.762 10.4494 153.468 18.04 153.468 27.5035ZM170.224 36.1785C165.394 36.1785 161.846 32.3339 161.846 27.5035C161.846 22.6732 165.394 18.8286 170.224 18.8286C175.054 18.8286 178.602 22.6732 178.602 27.5035C178.602 32.3339 175.054 36.1785 170.224 36.1785Z" fill="white"/>
<path d="M54.4087 44.5577H63.5753L57.9571 29.968C60.8155 28.095 62.6882 24.8419 62.6882 21.0959C62.6882 15.1812 57.9571 10.4494 52.0431 10.4494H36.2725V44.5577H44.7492V31.7424H49.3818L54.3101 44.5577H54.4087ZM44.7492 19.0257H52.0431C53.2259 19.0257 54.2115 20.0115 54.2115 21.1945C54.2115 22.3774 53.2259 23.3632 52.0431 23.3632H44.7492V19.1243V19.0257Z" fill="white"/>
<path d="M18.8262 10.4494H2.16846V44.5577H10.6452V31.7424H18.7276C24.6416 31.7424 29.3728 27.0107 29.3728 21.0959C29.3728 15.1812 24.6416 10.4494 18.7276 10.4494H18.8262ZM18.8262 23.2646H10.7437V19.0257H18.8262C20.009 19.0257 20.9946 20.0115 20.9946 21.1945C20.9946 22.3774 20.009 23.3632 18.8262 23.3632V23.2646Z" fill="white"/>
<path d="M318.763 44.5577H327.831L315.018 10.4494H306.541L293.728 44.5577H302.796L304.274 40.6146H317.186L318.665 44.5577H318.763ZM307.527 32.1368L310.779 23.3632L314.032 32.1368H307.428H307.527Z" fill="white"/>
<path d="M265.143 10.4494V28.8837L253.217 10.4494H244.74V44.5577H253.217V26.1234L265.143 44.5577H273.719V10.4494H265.143Z" fill="white"/>
<path d="M288.504 10.4494H280.027V44.5577H288.504V10.4494Z" fill="white"/>
<path d="M187.572 10.5479H197.428L203.342 30.0666L209.848 10.4494H217.93L224.435 30.0666L230.349 10.5479H240.009L228.674 44.5577H220.493L213.692 25.1376L206.891 44.5577H198.71L187.375 10.5479H187.572Z" fill="white"/>
<path d="M116.111 26.4192C116.111 26.7149 116.111 27.0107 116.111 27.2078C116.111 27.5036 116.111 27.7993 116.111 28.1936L120.941 39.2345C121.335 39.6288 121.828 40.1217 122.321 40.516L116.111 26.4192Z" fill="white"/>
<path d="M116.604 23.0675C116.505 23.5604 116.407 24.1519 116.308 24.6448L123.799 41.6989C124.292 41.9947 124.686 42.2904 125.179 42.5862L116.604 23.1661V23.0675Z" fill="white"/>
<path d="M133.459 36.0799C128.531 36.0799 124.588 32.1368 124.588 27.3064C124.588 22.3774 128.531 18.5329 133.459 18.5329C138.387 18.5329 137.5 19.4201 138.781 20.9973H148.244C146.272 14.5897 140.457 10.0551 133.459 10.0551C126.461 10.0551 120.448 14.0968 117.688 20.0115L128.333 43.8677C129.91 44.3606 131.685 44.6563 133.459 44.6563C140.457 44.6563 146.272 40.1217 148.244 33.714H138.781C137.5 35.2913 135.627 36.1785 133.459 36.1785V36.0799Z" fill="white"/>
<path d="M117.491 20.5045C117.294 20.9974 117.097 21.4902 116.9 22.0817L126.165 42.9805C126.658 43.1776 127.249 43.4734 127.742 43.572L117.491 20.5045Z" fill="white"/>
</svg>
