<svg width="241" height="104" viewBox="0 0 241 104" fill="none" xmlns="http://www.w3.org/2000/svg">
<path d="M122.2 7.70001H127.7L131 18.6L134.6 7.60001H139.1L142.7 18.6L146 7.70001H151.4L145.1 26.7H140.6L136.8 15.9L133 26.7H128.5L122.2 7.70001Z" fill="white"/>
<path d="M99.1 17.1C99.1 22.5 103.2 26.8 108.6 26.8C114 26.8 118.1 22.5 118.1 17.1C118.1 11.7 114 7.39999 108.6 7.39999C103.2 7.39999 99.1 11.7 99.1 17.1ZM108.6 22C105.9 22 103.9 19.8 103.9 17.1C103.9 14.4 105.9 12.2 108.6 12.2C111.3 12.2 113.3 14.4 113.3 17.1C113.3 19.8 111.3 22 108.6 22Z" fill="white"/>
<path d="M40.5 26.7H45.6L42.5 18.6C44.1 17.5 45.2 15.7 45.2 13.7C45.2 10.4 42.6 7.79999 39.3 7.79999H30.5V26.7H35.2V19.6H37.8L40.5 26.7ZM35.2 12.5H39.2C39.9 12.5 40.4 13 40.4 13.7C40.4 14.4 39.9 14.9 39.2 14.9H35.2V12.5Z" fill="white"/>
<path d="M17.1 7.79999H7.90002V26.7H12.6V19.6H17.1C20.4 19.6 23 17 23 13.7C23 10.4 20.4 7.79999 17.1 7.79999ZM17.1 14.9H12.6V12.5H17.1C17.8 12.5 18.3 13 18.3 13.7C18.3 14.4 17.8 14.9 17.1 14.9Z" fill="white"/>
<path d="M88.3 20.6C87.6 21.5 86.5 22 85.3 22C82.6 22 80.3 19.8 80.3 17.1C80.3 14.4 82.5 12.2 85.3 12.2C88.1 12.2 87.5 12.7 88.3 13.6H93.6C92.5 10 89.2 7.5 85.3 7.5C79.9 7.5 75.6 11.8 75.6 17.2C75.6 22.6 79.9 26.9 85.3 26.9C89.2 26.9 92.5 24.4 93.6 20.8H88.3V20.6Z" fill="white"/>
<path d="M203.9 26.7H209L201.9 7.79999H197.2L190.1 26.7H195.2L196 24.5H203.2L204 26.7H203.9ZM197.7 19.8L199.5 14.9L201.3 19.8H197.7Z" fill="white"/>
<path d="M66.1 26.7H71.2L64.1 7.79999H59.4L52.3 26.7H57.4L58.2 24.5H65.4L66.2 26.7H66.1ZM59.9 19.8L61.7 14.9L63.5 19.8H59.9Z" fill="white"/>
<path d="M168.2 7.79999V18L161.6 7.79999H156.8V26.7H161.6V16.5L168.2 26.7H172.9V7.79999H168.2Z" fill="white"/>
<path d="M184.8 7.79999H180.1V26.7H184.8V7.79999Z" fill="white"/>
<path d="M53.2 58.6C53 59.9 52.9 61.3 52.8 62.6L73.7 93.8C74.9 94.2 76.2 94.6 77.5 94.9L53.2 58.6Z" fill="white"/>
<path d="M52.9 66.1C53 67.6 53.2 69 53.5 70.4L66.8 90.3C68 91.1 69.2 91.8 70.5 92.4L52.9 66V66.1Z" fill="white"/>
<path d="M54.6 52.7C54.2 54 53.8 55.4 53.5 56.8L79.2 95.3C80.6 95.5 82 95.7 83.3 95.7L54.5 52.7H54.6Z" fill="white"/>
<path d="M90.9 31.5C75 28.4 60.2 37.3 54.9 52L84.2 95.7C99.5 95.9 112.8 85.1 115.9 69.5C119.4 51.8 108.7 35 91 31.5H90.9ZM100.2 66.4C98.4 75.4 90.4 81.3 81.4 79.5C72.4 77.7 67.2 69.2 69 60.2C70.8 51.2 78.8 45.3 87.8 47.1C96.8 48.9 102 57.4 100.2 66.4Z" fill="white"/>
<path d="M216.1 96.4H233L209.2 32.9H193.3L169.5 96.4H186.4L189.1 89.1H213.2L215.9 96.4H216.1ZM195.2 73.3L201.3 57L207.4 73.3H195.2Z" fill="white"/>
<path d="M58.7 32.9H39.6L23.8 56.5V32.9H7.90002V96.4H23.8V72.8L39.6 96.4H58.7L37.4 64.7L58.7 32.9Z" fill="white"/>
<path d="M166.1 59.9L154.9 48.7L137.5 66V32.9H121.7V96.4H166.1V80.6H145.4L166.1 59.9Z" fill="white"/>
</svg>
